<svg version="1.2" xmlns="http://www.w3.org/2000/svg" viewBox="0 0 424 425" width="424" height="425">
	<title>Точки на фоне</title>
	<style>
		.s0 { fill: #2ad590 } 
	</style>
	<g>
		<path fill-rule="evenodd" class="s0" d="m10.7 29.3c-5.9 0-10.7-4.8-10.7-10.7 0-5.8 4.8-10.6 10.7-10.6 5.8 0 10.6 4.8 10.6 10.6 0 5.9-4.8 10.7-10.6 10.7z"/>
		<path fill-rule="evenodd" class="s0" d="m89.8 29.3c-5.9 0-10.7-4.8-10.7-10.7 0-5.8 4.8-10.6 10.7-10.6 5.9 0 10.6 4.8 10.6 10.6 0 5.9-4.7 10.7-10.6 10.7z"/>
		<path fill-rule="evenodd" class="s0" d="m168.9 29.3c-5.9 0-10.6-4.8-10.6-10.7 0-5.8 4.7-10.6 10.6-10.6 5.9 0 10.7 4.8 10.7 10.6 0 5.9-4.8 10.7-10.7 10.7z"/>
		<path fill-rule="evenodd" class="s0" d="m248.1 29.3c-5.9 0-10.7-4.8-10.7-10.7 0-5.8 4.8-10.6 10.7-10.6 5.9 0 10.6 4.8 10.6 10.6 0 5.9-4.7 10.7-10.6 10.7z"/>
		<path fill-rule="evenodd" class="s0" d="m327.2 29.3c-5.9 0-10.6-4.8-10.6-10.7 0-5.8 4.7-10.6 10.6-10.6 5.9 0 10.7 4.8 10.7 10.6 0 5.9-4.8 10.7-10.7 10.7z"/>
		<path fill-rule="evenodd" class="s0" d="m406.4 29.3c-5.9 0-10.7-4.8-10.7-10.7 0-5.8 4.8-10.6 10.7-10.6 5.8 0 10.6 4.8 10.6 10.6 0 5.9-4.8 10.7-10.6 10.7z"/>
		<path fill-rule="evenodd" class="s0" d="m10.7 108.4c-5.9 0-10.7-4.7-10.7-10.6 0-5.9 4.8-10.7 10.7-10.7 5.8 0 10.6 4.8 10.6 10.7 0 5.9-4.8 10.6-10.6 10.6z"/>
		<path fill-rule="evenodd" class="s0" d="m89.8 108.4c-5.9 0-10.7-4.7-10.7-10.6 0-5.9 4.8-10.7 10.7-10.7 5.9 0 10.6 4.8 10.6 10.7 0 5.9-4.7 10.6-10.6 10.6z"/>
		<path fill-rule="evenodd" class="s0" d="m168.9 108.4c-5.9 0-10.6-4.7-10.6-10.6 0-5.9 4.7-10.7 10.6-10.7 5.9 0 10.7 4.8 10.7 10.7 0 5.9-4.8 10.6-10.7 10.6z"/>
		<path fill-rule="evenodd" class="s0" d="m248.1 108.4c-5.9 0-10.7-4.7-10.7-10.6 0-5.9 4.8-10.7 10.7-10.7 5.9 0 10.6 4.8 10.6 10.7 0 5.9-4.7 10.6-10.6 10.6z"/>
		<path fill-rule="evenodd" class="s0" d="m327.2 108.4c-5.9 0-10.6-4.7-10.6-10.6 0-5.9 4.7-10.7 10.6-10.7 5.9 0 10.7 4.8 10.7 10.7 0 5.9-4.8 10.6-10.7 10.6z"/>
		<path fill-rule="evenodd" class="s0" d="m406.4 108.4c-5.9 0-10.7-4.7-10.7-10.6 0-5.9 4.8-10.7 10.7-10.7 5.8 0 10.6 4.8 10.6 10.7 0 5.9-4.8 10.6-10.6 10.6z"/>
		<path fill-rule="evenodd" class="s0" d="m10.7 187.6c-5.9 0-10.7-4.8-10.7-10.7 0-5.9 4.8-10.6 10.7-10.6 5.8 0 10.6 4.7 10.6 10.6 0 5.9-4.8 10.7-10.6 10.7z"/>
		<path fill-rule="evenodd" class="s0" d="m89.8 187.6c-5.9 0-10.7-4.8-10.7-10.7 0-5.9 4.8-10.6 10.7-10.6 5.9 0 10.6 4.7 10.6 10.6 0 5.9-4.7 10.7-10.6 10.7z"/>
		<path fill-rule="evenodd" class="s0" d="m168.9 187.6c-5.9 0-10.6-4.8-10.6-10.7 0-5.9 4.7-10.6 10.6-10.6 5.9 0 10.7 4.7 10.7 10.6 0 5.9-4.8 10.7-10.7 10.7z"/>
		<path fill-rule="evenodd" class="s0" d="m248.1 187.6c-5.9 0-10.7-4.8-10.7-10.7 0-5.9 4.8-10.6 10.7-10.6 5.9 0 10.6 4.7 10.6 10.6 0 5.9-4.7 10.7-10.6 10.7z"/>
		<path fill-rule="evenodd" class="s0" d="m327.2 187.6c-5.9 0-10.6-4.8-10.6-10.7 0-5.9 4.7-10.6 10.6-10.6 5.9 0 10.7 4.7 10.7 10.6 0 5.9-4.8 10.7-10.7 10.7z"/>
		<path fill-rule="evenodd" class="s0" d="m406.4 187.6c-5.9 0-10.7-4.8-10.7-10.7 0-5.9 4.8-10.6 10.7-10.6 5.8 0 10.6 4.7 10.6 10.6 0 5.9-4.8 10.7-10.6 10.7z"/>
	</g>
	<g>
		<path fill-rule="evenodd" class="s0" d="m10.7 266.7c-5.9 0-10.7-4.7-10.7-10.6 0-5.9 4.8-10.7 10.7-10.7 5.8 0 10.6 4.8 10.6 10.7 0 5.9-4.8 10.6-10.6 10.6z"/>
		<path fill-rule="evenodd" class="s0" d="m89.8 266.7c-5.9 0-10.7-4.7-10.7-10.6 0-5.9 4.8-10.7 10.7-10.7 5.9 0 10.6 4.8 10.6 10.7 0 5.9-4.7 10.6-10.6 10.6z"/>
		<path fill-rule="evenodd" class="s0" d="m168.9 266.7c-5.9 0-10.6-4.7-10.6-10.6 0-5.9 4.7-10.7 10.6-10.7 5.9 0 10.7 4.8 10.7 10.7 0 5.9-4.8 10.6-10.7 10.6z"/>
		<path fill-rule="evenodd" class="s0" d="m248.1 266.7c-5.9 0-10.7-4.7-10.7-10.6 0-5.9 4.8-10.7 10.7-10.7 5.9 0 10.6 4.8 10.6 10.7 0 5.9-4.7 10.6-10.6 10.6z"/>
		<path fill-rule="evenodd" class="s0" d="m327.2 266.7c-5.9 0-10.6-4.7-10.6-10.6 0-5.9 4.7-10.7 10.6-10.7 5.9 0 10.7 4.8 10.7 10.7 0 5.9-4.8 10.6-10.7 10.6z"/>
		<path fill-rule="evenodd" class="s0" d="m406.4 266.7c-5.9 0-10.7-4.7-10.7-10.6 0-5.9 4.8-10.7 10.7-10.7 5.8 0 10.6 4.8 10.6 10.7 0 5.9-4.8 10.6-10.6 10.6z"/>
		<path fill-rule="evenodd" class="s0" d="m10.7 345.9c-5.9 0-10.7-4.8-10.7-10.7 0-5.9 4.8-10.6 10.7-10.6 5.8 0 10.6 4.7 10.6 10.6 0 5.9-4.8 10.7-10.6 10.7z"/>
		<path fill-rule="evenodd" class="s0" d="m89.8 345.9c-5.9 0-10.7-4.8-10.7-10.7 0-5.9 4.8-10.6 10.7-10.6 5.9 0 10.6 4.7 10.6 10.6 0 5.9-4.7 10.7-10.6 10.7z"/>
		<path fill-rule="evenodd" class="s0" d="m168.9 345.9c-5.9 0-10.6-4.8-10.6-10.7 0-5.9 4.7-10.6 10.6-10.6 5.9 0 10.7 4.7 10.7 10.6 0 5.9-4.8 10.7-10.7 10.7z"/>
		<path fill-rule="evenodd" class="s0" d="m248.1 345.9c-5.9 0-10.7-4.8-10.7-10.7 0-5.9 4.8-10.6 10.7-10.6 5.9 0 10.6 4.7 10.6 10.6 0 5.9-4.7 10.7-10.6 10.7z"/>
		<path fill-rule="evenodd" class="s0" d="m327.2 345.9c-5.9 0-10.6-4.8-10.6-10.7 0-5.9 4.7-10.6 10.6-10.6 5.9 0 10.7 4.7 10.7 10.6 0 5.9-4.8 10.7-10.7 10.7z"/>
		<path fill-rule="evenodd" class="s0" d="m406.4 345.9c-5.9 0-10.7-4.8-10.7-10.7 0-5.9 4.8-10.6 10.7-10.6 5.8 0 10.6 4.7 10.6 10.6 0 5.9-4.8 10.7-10.6 10.7z"/>
		<path fill-rule="evenodd" class="s0" d="m10.7 425c-5.9 0-10.7-4.8-10.7-10.6 0-5.9 4.8-10.7 10.7-10.7 5.8 0 10.6 4.8 10.6 10.7 0 5.8-4.8 10.6-10.6 10.6z"/>
		<path fill-rule="evenodd" class="s0" d="m89.8 425c-5.9 0-10.7-4.8-10.7-10.6 0-5.9 4.8-10.7 10.7-10.7 5.9 0 10.6 4.8 10.6 10.7 0 5.8-4.7 10.6-10.6 10.6z"/>
		<path fill-rule="evenodd" class="s0" d="m168.9 425c-5.9 0-10.6-4.8-10.6-10.6 0-5.9 4.7-10.7 10.6-10.7 5.9 0 10.7 4.8 10.7 10.7 0 5.8-4.8 10.6-10.7 10.6z"/>
		<path fill-rule="evenodd" class="s0" d="m248.1 425c-5.9 0-10.7-4.8-10.7-10.6 0-5.9 4.8-10.7 10.7-10.7 5.9 0 10.6 4.8 10.6 10.7 0 5.8-4.7 10.6-10.6 10.6z"/>
		<path fill-rule="evenodd" class="s0" d="m327.2 425c-5.9 0-10.6-4.8-10.6-10.6 0-5.9 4.7-10.7 10.6-10.7 5.9 0 10.7 4.8 10.7 10.7 0 5.8-4.8 10.6-10.7 10.6z"/>
		<path fill-rule="evenodd" class="s0" d="m406.4 425c-5.9 0-10.7-4.8-10.7-10.6 0-5.9 4.8-10.7 10.7-10.7 5.8 0 10.6 4.8 10.6 10.7 0 5.8-4.8 10.6-10.6 10.6z"/>
	</g>
</svg>