<svg version="1.2" xmlns="http://www.w3.org/2000/svg" viewBox="0 0 94 88" width="94" height="88">
	<title>Молоток</title>
	<style>
		.s0 { fill: none;stroke: #2ad590;stroke-linecap: round;stroke-miterlimit:10;stroke-width: 3.3 } 
		.s1 { fill: #2ad590 } 
		.s2 { fill: none;stroke: #2ad590;stroke-miterlimit:10;stroke-width: 4 } 
	</style>
	<path fill-rule="evenodd" class="s0" d="m32.2 29.2l7.3-7.4"/>
	<path fill-rule="evenodd" class="s1" d="m28.9 34.1c-0.9 0-1.6-0.8-1.6-1.7 0-0.9 0.7-1.6 1.6-1.6 0.9 0 1.6 0.7 1.6 1.6 0 0.9-0.7 1.7-1.6 1.7z"/>
	<path fill-rule="evenodd" class="s2" d="m13.4 31.9c1.6-1.7 4.3-1.8 6.1-0.2l14.4 13.4c1.7 1.6 1.8 4.3 0.2 6-1.6 1.7-4.3 1.8-6 0.2l-14.4-13.4c-1.7-1.5-1.9-4.2-0.3-6z"/>
	<path fill-rule="evenodd" class="s2" d="m38.5 7.5c1.6-1.7 4.3-1.8 6-0.2l14.4 13.3c1.7 1.6 1.8 4.3 0.3 6.1-1.6 1.7-4.3 1.8-6.1 0.2l-14.4-13.4c-1.7-1.6-1.8-4.3-0.2-6z"/>
	<path fill-rule="evenodd" class="s2" d="m19.9 32.2l18.8-18.8"/>
	<path fill-rule="evenodd" class="s2" d="m34.1 45.3l18.2-18.3"/>
	<path fill-rule="evenodd" class="s2" d="m20.7 62.7h24c2 0 3.6 1.6 3.6 3.5 0 2-1.6 3.6-3.6 3.6h-24c-1.9 0-3.5-1.6-3.5-3.6 0-1.9 1.6-3.5 3.5-3.5z"/>
	<path fill-rule="evenodd" class="s2" d="m16.6 70.9h32.2c2.1 0 3.8 1.7 3.8 3.8 0 2.1-1.7 3.8-3.8 3.8h-32.2c-2.1 0-3.8-1.7-3.8-3.8 0-2.1 1.7-3.8 3.8-3.8z"/>
	<path fill-rule="evenodd" class="s2" d="m52.1 31.6c1 1.1 1 2.8 0 3.8l-8.5 8.5c-1.1 1.1-2.8 1.1-3.8 0-1.1-1-1.1-2.7 0-3.8l8.5-8.5c1-1 2.7-1 3.8 0z"/>
	<path class="s2" d="m85.4 74.4l-0.4 0.4c-2.8 3-8.3 2.4-11.8-1.4l-23.7-25c-2.5-2.7-2.8-6.3-0.8-8.4 1.8-2 5.3-1.8 7.9 0.4l26.8 22.6c3.9 3.2 4.8 8.5 2 11.4z"/>
	<path fill-rule="evenodd" class="s2" d="m62.7 61.9l8.7-8.7"/>
	<path fill-rule="evenodd" class="s2" d="m67.1 66.8l9.5-9.6"/>
</svg>