<?xml version="1.0" encoding="UTF-8"?>
<svg id="_Слой_1" data-name="Слой_1" xmlns="http://www.w3.org/2000/svg" viewBox="0 0 1230.76 171.63">
  <defs>
    <style>
      .cls-1 {
        fill: #482368;
      }

      .cls-2 {
        fill: #a648e0;
      }

      .cls-3 {
        fill: #803eaf;
      }
    </style>
  </defs>
  <g>
    <path d="M151.47,46.7h38.59c19.81,0,33.28,11.12,33.28,29.1,0,20.11-14.99,29.8-33.87,29.8h-19.96v37.07h-18.04V46.7ZM169.52,91.08h18.03c10.82,0,17.53-4.63,17.53-14.9s-7.44-14.95-17.08-14.95h-18.49v29.85Z"/>
    <path d="M291.54,125.21c0,6.69.55,15.63.97,17.46h-16.49c-.56-1.47-.97-5.11-1.05-7.77-2.55,4.26-7.69,9.43-20.72,9.43-17.07,0-24.3-11.19-24.3-22.18,0-16.14,12.87-23.57,33.88-23.57h10.85v-4.94c0-5.48-1.89-11.37-12.45-11.37-9.54,0-11.43,4.34-12.47,9.64h-16.47c1.03-11.72,8.28-22.35,29.57-22.25,18.54.1,28.69,7.44,28.69,24.16v31.37ZM274.72,109.43h-9.22c-12.68,0-18.17,3.73-18.17,11.68,0,5.92,3.81,10.62,11.48,10.62,14.1,0,15.91-9.68,15.91-20.29v-2.01Z"/>
    <path d="M310.6,90.71c0-8.06-.04-14.12-.14-19.36h16.92c.24,1.73.47,8.31.47,13.21,3.34-8.66,11.25-14.71,23.27-14.87v16.64c-14.43-.1-23.27,5.03-23.27,24.07v32.29h-17.25v-51.97Z"/>
    <path d="M418.11,125.21c0,6.69.55,15.63.97,17.46h-16.49c-.56-1.47-.97-5.11-1.05-7.77-2.55,4.26-7.69,9.43-20.72,9.43-17.07,0-24.3-11.19-24.3-22.18,0-16.14,12.87-23.57,33.88-23.57h10.85v-4.94c0-5.48-1.89-11.37-12.45-11.37-9.54,0-11.43,4.34-12.47,9.64h-16.47c1.03-11.72,8.28-22.35,29.57-22.25,18.54.1,28.69,7.44,28.69,24.16v31.37ZM401.29,109.43h-9.22c-12.68,0-18.17,3.73-18.17,11.68,0,5.92,3.81,10.62,11.48,10.62,14.1,0,15.91-9.68,15.91-20.29v-2.01Z"/>
    <path d="M500.01,134.75c0,22.89-8.78,36.88-34.55,36.88s-30.21-13.73-31.09-22.33h17.58c1.62,5.88,6.13,9.49,14.27,9.49,13.96,0,16.91-8.64,16.91-23.45v-4.2c-3.75,6.78-9.87,10.86-20.84,10.86-18.38,0-29.51-15.03-29.51-34.79,0-22.63,13.42-37.53,31.06-37.53,12.7,0,18.02,5.98,19.29,9.78.14-2.37.57-6.84.71-8.11h16.35c-.1,5.61-.18,13.66-.18,20.51v42.89ZM450.55,106.44c0,13.21,6.7,21.45,16.42,21.45,13.07,0,16.69-8.89,16.69-22.17s-2.83-22.03-16.27-22.03c-10.12,0-16.84,8.1-16.84,22.75Z"/>
    <path d="M583.71,106.87c0,21.24-12.53,37.47-34.87,37.47s-34.28-15.79-34.28-37.14,12.91-37.53,35.17-37.53c20.6,0,33.98,14.82,33.98,37.19ZM532.13,107.01c0,14.38,6.55,23.61,17.17,23.61s16.84-9.04,16.84-23.51c0-15.31-6.09-23.71-17.12-23.71s-16.89,8.12-16.89,23.61Z"/>
    <path d="M598.25,89.32c0-6.11,0-12.62-.14-17.97h16.72c.38,1.93.61,7.74.67,9.97,2.57-5.03,8.35-11.64,21.29-11.64,14,0,23.7,9.18,23.7,27.45v45.55h-17.25v-43.56c0-8.95-3.19-15.24-12.64-15.24-10.09,0-15.1,6.54-15.1,19.72v39.09h-17.25v-53.36Z"/>
    <path d="M679.2,41.18h17.25v16.87h-17.25v-16.87ZM679.2,71.34h17.25v71.33h-17.25v-71.33Z"/>
    <path d="M726.65,71.34c8.31,14.25,11.75,20.03,14.04,23.81h.14c2.65-4.43,7.55-12.76,14.23-23.81h19.2l-23.47,34.07,23.49,37.26h-19.61c-7.17-12.71-11.86-21.12-14.22-25.39h-.14c-2.05,3.83-7.23,13.17-14.23,25.39h-18.95l22.71-35.06-22.38-36.28h19.18Z"/>
    <path d="M785.97,46.7h38.59c19.81,0,33.28,11.12,33.28,29.1,0,20.11-14.99,29.8-33.87,29.8h-19.96v37.07h-18.04V46.7ZM804.02,91.08h18.03c10.82,0,17.54-4.63,17.54-14.9s-7.44-14.95-17.08-14.95h-18.49v29.85Z"/>
    <path d="M870.85,90.71c0-8.06-.04-14.12-.14-19.36h16.92c.24,1.73.47,8.31.47,13.21,3.34-8.66,11.25-14.71,23.27-14.87v16.64c-14.43-.1-23.27,5.03-23.27,24.07v32.29h-17.25v-51.97Z"/>
    <path d="M922.89,41.18h17.25v16.87h-17.25v-16.87ZM922.89,71.34h17.25v71.33h-17.25v-71.33Z"/>
    <path d="M958.98,89.73c0-6.16,0-12.39-.14-18.39h16.53c.24,1.87.61,6.28.67,9.33,3.5-5.67,9.4-11,20.14-11s16.28,5.25,18.86,11.5c4.05-6.15,10.41-11.5,22.23-11.5s22.57,7.37,22.57,26.17v46.83h-16.86v-44.73c0-7.06-2.55-14.17-11.66-14.17s-13.34,6.54-13.34,18.06v40.84h-16.92v-44.1c0-7.99-2.08-14.7-11.44-14.7s-13.56,6.39-13.56,19.09v39.72h-17.06v-52.95Z"/>
    <path d="M1091.66,110.57c.04,10.8,5.46,20.05,16.06,20.05,9.25,0,12.04-4.14,14.05-8.76h17.29c-2.62,8.87-10.37,22.49-31.81,22.49-23.14,0-32.98-17.79-32.98-36.39,0-21.99,11.21-38.28,33.71-38.28,24,0,32.06,17.97,32.06,34.91,0,2.33,0,3.98-.24,5.98h-48.15ZM1122.71,99.6c-.14-9.46-4.32-17.27-14.81-17.27s-14.88,7.27-15.83,17.27h30.64Z"/>
    <path d="M1209.92,142.68l-22.28-35.74h-.14l-22.58,35.74h-19.54l32.1-48.43-31.1-47.54h20.91l21.04,33.71h.14l21.7-33.71h19.25l-31.2,45.92,32.56,50.06h-20.85Z"/>
  </g>
  <path class="cls-1" d="M86.59,39.33c6.43-4.67,13.25-9.29,20.11-13.45.16.19.26.28.32.54.48,2.13-.04,5.96-.07,8.23-.06,6.46-.07,12.91-.03,19.37l-.08,88.64-19.25.02c-.53-.03-.23.04-.81-.4-.53-3.19-.14-6.75-.14-9.99v-20.73s-.06-72.23-.06-72.23Z"/>
  <path class="cls-3" d="M46.25,68.46c6.08-4.42,13.61-8.93,20.34-12.65.13.19.32.35.4.56.37,1.01,0,14.85,0,17.36l-.07,68.95-20.41-.03c-.91-1.96-.3-67.28-.27-74.19Z"/>
  <path class="cls-2" d="M5.91,97.98c6.77-3.27,12.68-8.37,19.13-12.04l.84-.42c.74,1.38.16,50.4.16,57.15l-19.38-.03c-.66-.6-.7-40.55-.76-44.67Z"/>
  <path class="cls-2" d="M94.89,3.52c2.53,2.53,4.87,5.2,6.91,8.14-5.87,3.62-11.3,8.08-16.89,12.12l-37.94,27.59C31.35,62.6,15.65,73.73.2,85.21l-.2,10.95,65.76-47.47,23.11-16.76c5.84-4.24,11.68-8.64,17.77-12.52,2.12,3.44,4.21,7.23,6.94,10.22,3.52-9.65,6.84-19.74,9.63-29.62-9.41,1.4-18.89,2.22-28.31,3.52Z"/>
</svg>