<svg version="1.2" xmlns="http://www.w3.org/2000/svg" viewBox="0 0 941 223" width="941" height="223">
	<title>незерекспро (1)</title>
	<style>
		.s0 { fill: #000000 } 
		.s1 { fill: #e03934 } 
	</style>
	<g>
		<path class="s0" d="m12.9 76.3h15.7l45.4 54.1v-54.1h15.1v73.1h-15.7l-45.4-54.1v54.1h-15.1z"/>
		<path class="s0" d="m171 76.3v13h-32.8q-5 0-8.7 2-3.8 2.1-6.3 5.4-2.5 3.2-3.8 7.5-1.2 4.3-1.2 8.7 0 4.4 1.2 8.6 1.3 4.2 3.7 7.6 2.5 3.3 6.1 5.4 3.7 2 8.6 2h33.2v12.9h-33.3q-8.7-0.3-15.2-3.5-6.6-3.1-11.1-8.3-4.5-5.1-6.8-11.5-2.3-6.4-2.3-13.2c0-4.5 0.8-8.8 2.3-13.2q2.3-6.4 6.8-11.6 4.5-5.1 11.1-8.3 6.5-3.1 15.2-3.5h33.3zm-38.4 43.1v-13h30.5v13z"/>
		<path class="s0" d="m257 76.3v13h-31.3l0.1 60.1h-15.2v-60.1h-29.2v-13c0 0 75.6 0 75.6 0z"/>
		<path class="s0" d="m340 149.4h-15.1v-30h-41.5v30h-15.2v-73.1h15.2v30.1h41.5v-30.1h15.1z"/>
		<path class="s0" d="m421.9 76.3v13h-32.8q-5 0-8.8 2-3.7 2.1-6.2 5.4-2.5 3.2-3.8 7.5-1.2 4.3-1.2 8.7 0 4.4 1.2 8.6 1.3 4.2 3.7 7.6 2.5 3.3 6.1 5.4 3.7 2 8.6 2h33.2v12.9h-33.3q-8.7-0.3-15.3-3.5-6.6-3.1-11-8.3-4.5-5.1-6.8-11.5-2.3-6.4-2.3-13.2c0-4.5 0.7-8.8 2.3-13.2q2.3-6.4 6.8-11.6 4.5-5.1 11-8.3 6.6-3.1 15.3-3.5h33.3zm-38.4 43.1v-13h30.5v13z"/>
		<path class="s0" d="m438 76.3h42.1q5.4 0.1 9.6 2.1 4.3 2 7.1 5.1 2.8 3.2 4.3 7.1 1.4 4 1.4 8.2 0 3.3-0.9 6.6-1 3.2-2.8 6-1.9 2.8-4.7 5.2-2.8 2.4-6.6 3.7h-0.2q2.8 4.4 5.7 8.5 3 4.1 6.2 8 8.7 11 19.3 20.8 10.6 9.8 22.7 17.2 12.1 7.4 25.6 11.8 13.4 4.3 28 4.3 9.5 0 18.1-2.5 8.7-2.4 16.5-6.8 7.8-4.4 14.5-10.4 6.8-6 12.5-13.1l10.4 10q-6.7 8.5-14.6 15.4-7.9 6.9-16.9 11.8-9 4.9-19.1 7.6-10.2 2.6-21.2 2.6-16.4 0-31.5-4.7-15.1-4.7-28.7-12.8-13.6-8.2-25.4-19-11.9-10.9-21.7-23.2-9.4-11.6-17.2-24.6h-17.4v28.2h-15.1v-73.1zm15.1 32h22.8q2.7 0 4.7-0.8 2.1-0.8 3.4-2.2 1.3-1.4 2-3.1 0.7-1.7 0.7-3.5 0-1.8-0.7-3.4-0.7-1.7-2-3.1-1.3-1.4-3.4-2.2-2-0.7-4.7-0.7h-22.8c0 0 0 19 0 19z"/>
		<path class="s0" d="m581.8 76.3v13h-32.8q-5 0-8.7 2-3.8 2.1-6.3 5.4-2.5 3.2-3.8 7.5-1.2 4.3-1.2 8.7 0 4.4 1.2 8.6 1.3 4.2 3.7 7.6 2.5 3.3 6.1 5.4 3.7 2 8.6 2h33.2v12.9h-33.3q-8.7-0.3-15.2-3.5-6.6-3.1-11.1-8.3-4.5-5.1-6.8-11.5-2.3-6.4-2.3-13.2c0-4.5 0.8-8.8 2.3-13.2q2.3-6.4 6.8-11.6 4.5-5.1 11.1-8.3 6.5-3.1 15.2-3.5h33.3zm-38.4 43.1v-13h30.5v13z"/>
		<path class="s0" d="m638.6 112.5q7.5 10 15.1 19.6 7.7 9.6 16 18.2 8.3 8.7 17.4 15.9 9.1 7.3 19.4 12.5 10.3 5.2 22 8.2 11.7 3 25.2 3 18.6 0 33.3-7.6 14.6-7.7 26-22.1l11.2 9.3q-13.3 16.8-30.9 25.9-17.6 9.1-39.4 9.1-14.9 0-27.8-3.1-12.9-3-24.2-8.5-11.2-5.4-21.1-12.9-9.8-7.5-18.6-16.4-8.8-8.8-16.9-18.7-8-9.8-15.7-20.1l-17.9 24.7h-19.7l28.1-37.4q-7.6-10.3-15.2-20.2-7.5-9.9-15.6-18.8-8.1-8.9-16.9-16.4-8.7-7.5-18.5-13-9.8-5.5-21-8.5-11.2-3.1-24-3.1-9.7 0-18.4 2.2-8.7 2.3-16.4 6.4-7.7 4.1-14.6 10-6.9 5.8-13 13l-11.2-9.3q7.1-8.4 15.2-15.2 8.2-6.8 17.3-11.7 9.1-4.8 19.4-7.4 10.2-2.6 21.5-2.6 14.4-0.1 26.8 3.1 12.4 3.2 23.2 8.9 10.8 5.7 20.2 13.6 9.5 7.8 18.1 16.9 8.6 9.2 16.6 19.3 7.9 10.2 15.7 20.7l17.8-23.6h17.9l-26.4 36.1z"/>
	</g>
	<g>
		<path class="s1" d="m722.4 78.1l46.2 0.3h4.1q7.9 0 12.1 6.2 0.6 1.3 0.8 3.7 0 4.6-8.4 18.5-4.7 9.7-11 15.6-9.8 9.5-26.5 9.5l-28.1-0.2q-9.2 16.7-10.6 18.1h-19.6l-0.5-0.4 41.3-71.3h0.2zm9.3 18.6l-10 17.5h16.7q13.3 0 16.1-4.6 5-6.8 5-9.2v-0.3q-0.7-3.4-5.8-3.4z"/>
		<path class="s1" d="m799.7 77.9h47.9q13.5 0 15.8 8.4l0.2 1.5q0 4.8-9.3 20.1-5.3 10.7-11.6 13.6l-5.7 1.3v0.2q4.4 0 5.2 4.1v0.7q0 2.1-10.3 19.6l-1.3 2.2-11.9 0.2h-8.2l-0.4-0.4 9.9-17.7h-30.2l-10.6 17.9h-20.1q1.3-3.2 18.8-33.5 20.9-37.3 21.8-38.2zm0.2 36.1h17.1q14.6 0 17-6.7 3.3-5.6 3.3-7.4v-1.5q-1.3-2.1-5.2-2.1h-22q-10.1 16.9-10.2 17.7z"/>
		<path class="s1" d="m896.4 78.3h30q11.2 0 13.6 8l0.3 1.5q0 5.1-8.7 19-14.3 25.9-17.2 29.8-7.4 8-13.8 10.4-6.1 2.8-17.7 2.8h-27.2q-9.3 0-12.3-5.8-0.7-2.1-0.7-3.5 0-5.3 10.2-21.4 12.6-22.3 16.2-26.9 12.4-13.9 27.4-13.8zm-26.3 49.2v0.4q0 3.7 5.7 3.7h12.3q11 0 17.4-14.7 8.4-13.6 8.5-16.4v-0.7q0-2.7-4.8-3.2h-13.2q-10.6 0-18.7 16.4-7.2 11.4-7.2 14.4z"/>
	</g>
</svg>