<svg width="1583" height="233" viewBox="0 0 1583 233" fill="none" xmlns="http://www.w3.org/2000/svg">
<g clip-path="url(#clip0_1811_2)">
<path d="M1540.8 95.399L1520.85 45.4663H1531.91L1544.33 78.4432L1556.68 45.4663H1567.74L1547.85 95.399H1540.8ZM1516.99 95.399V45.4663H1529.54V95.399H1516.99ZM1559.05 95.399V45.4663H1571.67V95.399H1559.05ZM1480.49 95.399V49.8127H1493.1V95.399H1480.49ZM1465.29 55.8513V45.4663H1508.3V55.8513H1465.29Z" fill="white"/>
<path d="M84.3838 61.7793C84.3838 45.4436 90.8731 29.777 102.424 18.2259C113.975 6.67487 129.642 0.185547 145.977 0.185547L259.298 0.185547C259.298 16.52 252.81 32.1856 241.26 43.7365C229.711 55.2873 214.046 61.7775 197.712 61.7793H84.3838ZM84.3838 232.177C84.3829 224.088 85.9754 216.078 89.0705 208.605C92.1656 201.132 96.7025 194.341 102.422 188.622C108.142 182.902 114.932 178.365 122.406 175.27C129.879 172.175 137.889 170.582 145.977 170.583H259.298C259.299 178.671 257.707 186.681 254.612 194.154C251.518 201.626 246.981 208.417 241.262 214.136C235.544 219.856 228.754 224.393 221.281 227.488C213.809 230.584 205.8 232.177 197.712 232.177H84.3838ZM39.125 150.059C39.125 133.723 45.6143 118.057 57.1654 106.505C68.7164 94.9544 84.383 88.4651 100.719 88.4651H214.04C214.04 104.8 207.551 120.465 196.002 132.016C184.452 143.567 168.787 150.057 152.453 150.059H39.125Z" fill="#FD8704"/>
<path opacity="0.5" d="M0 150.059C0 133.723 6.48932 118.057 18.0404 106.506C29.5914 94.9547 45.258 88.4653 61.5937 88.4653H214.012C214.012 104.8 207.524 120.465 195.974 132.016C184.425 143.567 168.76 150.057 152.425 150.059H0Z" fill="#FD8704"/>
<path d="M395.086 38.6063V170.828H370.94L313.415 87.6084H312.447V170.828H284.492V38.6063H309.025L366.098 121.761H367.26V38.6063H395.086ZM462.859 172.765C452.658 172.765 443.878 170.699 436.518 166.567C429.201 162.392 423.563 156.495 419.603 148.877C415.643 141.216 413.663 132.156 413.663 121.697C413.663 111.496 415.643 102.544 419.603 94.8393C423.563 87.135 429.136 81.1308 436.324 76.8267C443.555 72.5226 452.034 70.3706 461.761 70.3706C468.304 70.3706 474.394 71.4251 480.032 73.5341C485.714 75.6 490.663 78.7205 494.881 82.8955C499.143 87.0704 502.457 92.3214 504.824 98.6485C507.191 104.932 508.375 112.292 508.375 120.728V128.282H424.639V111.238H482.486C482.486 107.278 481.625 103.77 479.903 100.714C478.182 97.6585 475.793 95.2697 472.737 93.5481C469.724 91.7834 466.216 90.9011 462.213 90.9011C458.038 90.9011 454.337 91.8695 451.109 93.8063C447.924 95.7001 445.427 98.2611 443.62 101.489C441.812 104.674 440.887 108.225 440.844 112.142V128.347C440.844 133.253 441.747 137.493 443.555 141.065C445.406 144.638 448.01 147.392 451.367 149.329C454.724 151.266 458.706 152.234 463.311 152.234C466.367 152.234 469.165 151.804 471.704 150.943C474.243 150.082 476.417 148.791 478.225 147.07C480.032 145.348 481.41 143.239 482.357 140.743L507.794 142.421C506.503 148.533 503.856 153.87 499.853 158.432C495.893 162.952 490.771 166.481 484.487 169.02C478.246 171.517 471.037 172.765 462.859 172.765ZM554.601 172.7C548.274 172.7 542.635 171.603 537.686 169.408C532.736 167.17 528.819 163.877 525.936 159.53C523.095 155.14 521.674 149.673 521.674 143.131C521.674 137.622 522.686 132.995 524.709 129.251C526.732 125.506 529.486 122.493 532.973 120.212C536.459 117.931 540.419 116.209 544.852 115.047C549.328 113.885 554.02 113.067 558.926 112.594C564.694 111.991 569.342 111.432 572.872 110.915C576.401 110.356 578.962 109.538 580.554 108.462C582.147 107.386 582.943 105.793 582.943 103.684V103.297C582.943 99.208 581.652 96.0445 579.07 93.8063C576.53 91.5682 572.915 90.4492 568.223 90.4492C563.274 90.4492 559.335 91.5467 556.409 93.7418C553.482 95.8938 551.545 98.6054 550.598 101.877L525.161 99.8106C526.452 93.7848 528.991 88.5769 532.779 84.1867C536.567 79.7535 541.452 76.3532 547.434 73.986C553.46 71.5757 560.433 70.3706 568.352 70.3706C573.862 70.3706 579.134 71.0162 584.17 72.3074C589.249 73.5986 593.747 75.6 597.663 78.3116C601.623 81.0232 604.743 84.5095 607.025 88.7706C609.306 92.9886 610.446 98.0459 610.446 103.942V170.828H584.364V157.077H583.589C581.996 160.175 579.866 162.909 577.197 165.276C574.529 167.6 571.322 169.429 567.578 170.764C563.833 172.055 559.507 172.7 554.601 172.7ZM562.477 153.719C566.523 153.719 570.096 152.923 573.194 151.331C576.293 149.695 578.725 147.5 580.49 144.745C582.255 141.991 583.137 138.87 583.137 135.384V124.86C582.276 125.42 581.092 125.936 579.586 126.41C578.123 126.84 576.466 127.249 574.615 127.637C572.764 127.981 570.913 128.304 569.063 128.605C567.212 128.863 565.533 129.1 564.027 129.315C560.799 129.789 557.98 130.542 555.569 131.575C553.159 132.608 551.287 134.007 549.952 135.771C548.618 137.493 547.951 139.645 547.951 142.227C547.951 145.972 549.307 148.834 552.018 150.814C554.773 152.751 558.259 153.719 562.477 153.719ZM631.784 170.828V71.6618H658.448V88.9642H659.481C661.289 82.8094 664.323 78.161 668.584 75.019C672.845 71.8339 677.752 70.2414 683.304 70.2414C684.681 70.2414 686.166 70.3275 687.759 70.4997C689.351 70.6718 690.75 70.9086 691.955 71.2098V95.6141C690.664 95.2267 688.878 94.8824 686.597 94.5811C684.315 94.2798 682.228 94.1292 680.334 94.1292C676.288 94.1292 672.673 95.0115 669.488 96.7762C666.346 98.4978 663.849 100.908 661.999 104.007C660.191 107.106 659.287 110.678 659.287 114.724V170.828H631.784ZM746.752 172.765C736.551 172.765 727.771 170.699 720.411 166.567C713.094 162.392 707.455 156.495 703.496 148.877C699.536 141.216 697.556 132.156 697.556 121.697C697.556 111.496 699.536 102.544 703.496 94.8393C707.455 87.135 713.029 81.1308 720.217 76.8267C727.448 72.5226 735.927 70.3706 745.654 70.3706C752.196 70.3706 758.287 71.4251 763.925 73.5341C769.606 75.6 774.556 78.7205 778.774 82.8955C783.035 87.0704 786.349 92.3214 788.717 98.6485C791.084 104.932 792.268 112.292 792.268 120.728V128.282H708.531V111.238H766.378C766.378 107.278 765.518 103.77 763.796 100.714C762.074 97.6585 759.686 95.2697 756.63 93.5481C753.617 91.7834 750.109 90.9011 746.106 90.9011C741.931 90.9011 738.23 91.8695 735.002 93.8063C731.817 95.7001 729.32 98.2611 727.512 101.489C725.705 104.674 724.779 108.225 724.736 112.142V128.347C724.736 133.253 725.64 137.493 727.448 141.065C729.299 144.638 731.903 147.392 735.26 149.329C738.617 151.266 742.598 152.234 747.204 152.234C750.26 152.234 753.057 151.804 755.597 150.943C758.136 150.082 760.31 148.791 762.117 147.07C763.925 145.348 765.302 143.239 766.249 140.743L791.686 142.421C790.395 148.533 787.748 153.87 783.745 158.432C779.786 162.952 774.664 166.481 768.38 169.02C762.139 171.517 754.93 172.765 746.752 172.765ZM892.725 99.9397L867.546 101.489C867.116 99.3371 866.19 97.4003 864.77 95.6786C863.35 93.914 861.477 92.5151 859.153 91.4821C856.872 90.4061 854.139 89.8681 850.954 89.8681C846.693 89.8681 843.099 90.772 840.172 92.5797C837.245 94.3444 835.782 96.7116 835.782 99.6814C835.782 102.049 836.729 104.05 838.623 105.686C840.516 107.321 843.766 108.634 848.371 109.624L866.319 113.239C875.961 115.219 883.149 118.404 887.883 122.794C892.618 127.185 894.985 132.952 894.985 140.097C894.985 146.596 893.069 152.299 889.239 157.206C885.451 162.112 880.243 165.943 873.615 168.698C867.03 171.409 859.433 172.765 850.825 172.765C837.697 172.765 827.238 170.032 819.448 164.566C811.701 159.056 807.16 151.567 805.825 142.098L832.877 140.678C833.694 144.681 835.674 147.737 838.816 149.846C841.958 151.912 845.983 152.945 850.889 152.945C855.71 152.945 859.584 152.019 862.51 150.168C865.48 148.275 866.987 145.843 867.03 142.873C866.987 140.377 865.932 138.332 863.866 136.74C861.8 135.104 858.615 133.856 854.311 132.995L837.138 129.573C827.454 127.637 820.244 124.279 815.51 119.502C810.818 114.724 808.472 108.634 808.472 101.231C808.472 94.8608 810.194 89.3731 813.637 84.7677C817.124 80.1624 822.009 76.6115 828.293 74.1151C834.62 71.6187 842.023 70.3706 850.502 70.3706C863.027 70.3706 872.883 73.0176 880.071 78.3116C887.302 83.6056 891.52 90.815 892.725 99.9397ZM965.05 71.6618V92.3214H905.331V71.6618H965.05ZM918.889 47.9032H946.392V140.355C946.392 142.895 946.779 144.874 947.554 146.295C948.329 147.672 949.405 148.641 950.782 149.2C952.202 149.76 953.838 150.039 955.689 150.039C956.98 150.039 958.271 149.932 959.562 149.717C960.854 149.458 961.843 149.265 962.532 149.135L966.858 169.601C965.48 170.032 963.544 170.527 961.047 171.086C958.551 171.689 955.516 172.055 951.944 172.184C945.316 172.442 939.505 171.56 934.512 169.537C929.563 167.514 925.711 164.372 922.956 160.111C920.201 155.85 918.846 150.47 918.889 143.971V47.9032ZM1025.56 170.828V38.6063H1114.65V61.6548H1053.52V93.1607H1110.07V116.209H1053.52V147.78H1114.91V170.828H1025.56ZM1172.91 172.442C1165.37 172.442 1158.55 170.505 1152.44 166.632C1146.37 162.715 1141.55 156.969 1137.98 149.394C1134.45 141.775 1132.68 132.436 1132.68 121.374C1132.68 110.011 1134.51 100.564 1138.17 93.0316C1141.83 85.4564 1146.69 79.7965 1152.76 76.052C1158.87 72.2644 1165.57 70.3706 1172.84 70.3706C1178.39 70.3706 1183.02 71.3175 1186.72 73.2113C1190.47 75.062 1193.48 77.3862 1195.76 80.1839C1198.08 82.9385 1199.85 85.6501 1201.05 88.3186H1201.89V38.6063H1229.33V170.828H1202.22V154.946H1201.05C1199.76 157.701 1197.93 160.434 1195.57 163.145C1193.24 165.814 1190.21 168.03 1186.46 169.795C1182.76 171.56 1178.24 172.442 1172.91 172.442ZM1181.62 150.556C1186.05 150.556 1189.8 149.351 1192.85 146.94C1195.95 144.487 1198.32 141.065 1199.96 136.675C1201.64 132.285 1202.47 127.142 1202.47 121.245C1202.47 115.348 1201.66 110.226 1200.02 105.879C1198.39 101.532 1196.02 98.175 1192.92 95.8078C1189.82 93.4405 1186.05 92.2569 1181.62 92.2569C1177.1 92.2569 1173.29 93.4835 1170.19 95.9369C1167.09 98.3902 1164.75 101.79 1163.16 106.138C1161.56 110.485 1160.77 115.521 1160.77 121.245C1160.77 127.012 1161.56 132.113 1163.16 136.546C1164.79 140.936 1167.14 144.379 1170.19 146.876C1173.29 149.329 1177.1 150.556 1181.62 150.556ZM1296.62 210.081C1287.71 210.081 1280.07 208.855 1273.7 206.401C1267.38 203.991 1262.34 200.699 1258.59 196.524C1254.85 192.349 1252.42 187.657 1251.3 182.449L1276.74 179.027C1277.51 181.007 1278.74 182.858 1280.42 184.58C1282.1 186.301 1284.31 187.679 1287.07 188.712C1289.86 189.788 1293.26 190.326 1297.27 190.326C1303.25 190.326 1308.18 188.862 1312.05 185.935C1315.97 183.052 1317.93 178.21 1317.93 171.409V153.267H1316.76C1315.56 156.022 1313.75 158.626 1311.34 161.079C1308.93 163.533 1305.83 165.534 1302.04 167.084C1298.26 168.633 1293.74 169.408 1288.49 169.408C1281.04 169.408 1274.26 167.686 1268.15 164.243C1262.08 160.757 1257.24 155.441 1253.62 148.296C1250.05 141.108 1248.26 132.027 1248.26 121.051C1248.26 109.818 1250.09 100.435 1253.75 92.9025C1257.41 85.3703 1262.27 79.732 1268.34 75.9874C1274.46 72.2428 1281.15 70.3706 1288.42 70.3706C1293.97 70.3706 1298.62 71.3175 1302.37 73.2113C1306.11 75.062 1309.12 77.3862 1311.41 80.1839C1313.73 82.9385 1315.52 85.6501 1316.76 88.3186H1317.8V71.6618H1345.11V171.797C1345.11 180.233 1343.04 187.291 1338.91 192.973C1334.78 198.654 1329.05 202.915 1321.74 205.756C1314.46 208.64 1306.09 210.081 1296.62 210.081ZM1297.2 148.748C1301.64 148.748 1305.38 147.651 1308.44 145.455C1311.54 143.217 1313.9 140.032 1315.54 135.9C1317.22 131.725 1318.06 126.733 1318.06 120.922C1318.06 115.112 1317.24 110.076 1315.6 105.815C1313.97 101.511 1311.6 98.175 1308.5 95.8078C1305.4 93.4405 1301.64 92.2569 1297.2 92.2569C1292.68 92.2569 1288.87 93.4835 1285.78 95.9369C1282.68 98.3472 1280.33 101.704 1278.74 106.008C1277.15 110.313 1276.35 115.284 1276.35 120.922C1276.35 126.647 1277.15 131.596 1278.74 135.771C1280.37 139.903 1282.72 143.11 1285.78 145.391C1288.87 147.629 1292.68 148.748 1297.2 148.748ZM1412.19 172.765C1401.99 172.765 1393.21 170.699 1385.85 166.567C1378.53 162.392 1372.89 156.495 1368.93 148.877C1364.97 141.216 1362.99 132.156 1362.99 121.697C1362.99 111.496 1364.97 102.544 1368.93 94.8393C1372.89 87.135 1378.46 81.1308 1385.65 76.8267C1392.88 72.5226 1401.36 70.3706 1411.09 70.3706C1417.63 70.3706 1423.72 71.4251 1429.36 73.5341C1435.04 75.6 1439.99 78.7205 1444.21 82.8955C1448.47 87.0704 1451.78 92.3214 1454.15 98.6485C1456.52 104.932 1457.7 112.292 1457.7 120.728V128.282H1373.97V111.238H1431.81C1431.81 107.278 1430.95 103.77 1429.23 100.714C1427.51 97.6585 1425.12 95.2697 1422.06 93.5481C1419.05 91.7834 1415.54 90.9011 1411.54 90.9011C1407.37 90.9011 1403.66 91.8695 1400.44 93.8063C1397.25 95.7001 1394.75 98.2611 1392.95 101.489C1391.14 104.674 1390.21 108.225 1390.17 112.142V128.347C1390.17 133.253 1391.07 137.493 1392.88 141.065C1394.73 144.638 1397.34 147.392 1400.69 149.329C1404.05 151.266 1408.03 152.234 1412.64 152.234C1415.69 152.234 1418.49 151.804 1421.03 150.943C1423.57 150.082 1425.74 148.791 1427.55 147.07C1429.36 145.348 1430.74 143.239 1431.68 140.743L1457.12 142.421C1455.83 148.533 1453.18 153.87 1449.18 158.432C1445.22 162.952 1440.1 166.481 1433.81 169.02C1427.57 171.517 1420.36 172.765 1412.19 172.765Z" fill="#F6890B"/>
</g>
<defs>
<clipPath id="clip0_1811_2">
<rect width="1583" height="231.991" fill="white" transform="translate(0 0.185547)"/>
</clipPath>
</defs>
</svg>
