<svg version="1.2" xmlns="http://www.w3.org/2000/svg" viewBox="0 0 103 86" width="103" height="86">
	<title>Ракета 2</title>
	<style>
		.s0 { fill: none;stroke: #2ad590;stroke-miterlimit:10;stroke-width: 4.5 } 
		.s1 { fill: none;stroke: #2ad590;stroke-linecap: round;stroke-miterlimit:10;stroke-width: 4.5 } 
		.s2 { fill: #2ad590 } 
	</style>
	<g>
		<path fill-rule="evenodd" class="s0" d="m78.8 27c-2.3 0-4.2-1.9-4.2-4.2 0-2.3 1.9-4.2 4.2-4.2 2.3 0 4.2 1.9 4.2 4.2 0 2.3-1.9 4.2-4.2 4.2z"/>
		<path fill-rule="evenodd" class="s1" d="m16.9 53.3l14.4-11.6"/>
		<path fill-rule="evenodd" class="s1" d="m34.3 76.7l14.4-11.6"/>
		<path fill-rule="evenodd" class="s1" d="m15.9 73.4l21.1-17"/>
		<path class="s2" d="m96.5 8.6c-0.7-0.4-12.8-4.5-18.2-3-4.2 1.2-15.9 10.6-20.9 14.7q-0.3 0.2-0.7 0.2c-5.1-0.7-15.6-2.1-16.4-1.9-1.1 0.2-11.1 8.2-11.5 8.8-0.5 0.7-0.7 2.4 1.2 3.8 1.6 1.1 6.4 4.8 8.4 6.2 0.5 0.4 0.7 1 0.7 1.6-0.2 2.5-0.3 8.9 3.2 13.3 3.5 4.4 10 5.6 12.5 6 0.7 0.1 1.2 0.5 1.4 1.1 0.9 2.6 3.3 9.4 3.9 10.2 0.7 1 2.1 2.4 4.6 0.3 2.5-2.1 9.5-7.4 9.9-8 0.3-0.4 1.8-12.7 2.4-18q0.1-0.4 0.4-0.6c5.6-4.3 14.2-10.9 15.1-11.8 1.5-1.4 4.6-6.5 4.5-13.3-0.1-6.8 0.1-9.1-0.5-9.6zm-5.6 16.9c-1.2 1.8-16.1 13.2-18.5 15-0.2 0.2-0.4 0.4-0.4 0.7l-1.8 16.8c-0.1 0.4-0.3 0.8-0.6 1.1l-4.5 4c-0.7 0.6-1.7 0.4-2.1-0.4l-3-7.6c-0.2-0.5-0.7-0.8-1.2-0.9-2.4-0.4-8.7-1.4-11.9-4.5-4.2-4.1-3.4-10.3-2.8-13 0.1-0.8-0.2-1.6-0.9-2.1l-5.8-4.1c-1-0.7-1.1-2.2-0.1-2.9l4.3-3.2c0.5-0.3 1.1-0.5 1.7-0.4l14.9 1.5q0.4 0.1 0.7-0.2c2.3-1.8 16.8-13.1 19.3-14 2.2-0.9 10.4 0.4 13 0.8 0.5 0.1 0.8 0.5 0.8 1 0.1 2.6 0.1 10.8-1.1 12.4z"/>
	</g>
</svg>