<svg version="1.2" xmlns="http://www.w3.org/2000/svg" viewBox="0 0 171 173" width="171" height="173">
	<title>rocket_bg</title>
	<style>
		.s0 { fill: #2ad590 } 
		.s1 { fill: none;stroke: #ffffff;stroke-miterlimit:10;stroke-width: 6.5 } 
		.s2 { fill: none;stroke: #ffffff;stroke-linecap: round;stroke-miterlimit:10;stroke-width: 6.5 } 
		.s3 { fill: #ffffff } 
	</style>
	<path fill-rule="evenodd" class="s0" d="m23 5h122c12.7 0 23 10.3 23 23v122c0 12.7-10.3 23-23 23h-122c-12.7 0-23-10.3-23-23v-122c0-12.7 10.3-23 23-23z"/>
	<g>
		<path fill-rule="evenodd" class="s1" d="m116.6 69.2c-3.4 0-6.1-2.8-6.1-6.2 0-3.3 2.7-6.1 6.1-6.1 3.4 0 6.1 2.8 6.1 6.1 0 3.4-2.7 6.2-6.1 6.2z"/>
		<path fill-rule="evenodd" class="s2" d="m26.5 107.6l21-17"/>
		<path fill-rule="evenodd" class="s2" d="m51.9 141.6l21-17"/>
		<path fill-rule="evenodd" class="s2" d="m25.1 136.8l30.7-24.8"/>
		<path class="s3" d="m142.3 42.4c-1-0.7-18.6-6.7-26.4-4.4-6.2 1.7-23.2 15.4-30.4 21.4-0.3 0.2-0.7 0.3-1.1 0.3-7.4-1-22.7-3-23.9-2.8-1.6 0.3-16.1 11.9-16.7 12.9-0.7 0.9-1 3.5 1.8 5.5 2.2 1.5 9.3 6.9 12.2 9.1 0.7 0.5 1.1 1.4 1 2.3-0.3 3.6-0.4 12.9 4.7 19.3 5.1 6.4 14.5 8.1 18.2 8.7 1 0.1 1.7 0.8 2 1.6 1.4 3.8 4.8 13.7 5.7 14.8 1.1 1.5 3.1 3.6 6.7 0.5 3.6-3.1 13.8-10.7 14.5-11.7 0.4-0.5 2.5-18.5 3.4-26.1 0.1-0.4 0.3-0.8 0.6-1 8.1-6.2 20.6-15.8 22-17.2 2.1-2 6.6-9.4 6.5-19.3-0.1-9.9 0.1-13.3-0.8-13.9zm-8 24.6c-1.8 2.6-23.5 19.2-27 21.8-0.3 0.3-0.5 0.6-0.6 1l-2.6 24.5c-0.1 0.6-0.4 1.2-0.8 1.6l-6.6 5.9c-0.9 0.9-2.5 0.5-3-0.7l-4.4-11c-0.3-0.7-1-1.3-1.8-1.4-3.5-0.5-12.7-1.9-17.2-6.4-6.2-6.1-5.1-15.1-4.2-19 0.2-1.1-0.2-2.3-1.2-3l-8.6-6c-1.5-1-1.5-3.2-0.1-4.2l6.3-4.7c0.7-0.5 1.5-0.7 2.4-0.6l21.7 2.2c0.3 0 0.7-0.1 1-0.3 3.3-2.6 24.6-19 28.1-20.4 3.2-1.3 15.2 0.5 18.9 1.2 0.7 0.1 1.2 0.6 1.2 1.3 0.1 3.8 0.1 15.8-1.5 18.1z"/>
	</g>
</svg>